0
SECTION
2
HEADER
9
$INSUNITS
70
4
9
$ACADVER
1
AC1014
9
$HANDSEED
5
FFFF
0
ENDSEC
0
SECTION
2
TABLES
0
TABLE
2
VPORT
5
8
100
AcDbSymbolTable
0
ENDTAB
0
TABLE
2
LTYPE
5
5
100
AcDbSymbolTable
0
LTYPE
5
14
100
AcDbSymbolTableRecord
100
AcDbLinetypeTableRecord
2
BYBLOCK
70
0
0
LTYPE
5
15
100
AcDbSymbolTableRecord
100
AcDbLinetypeTableRecord
2
BYLAYER
70
0
0
ENDTAB
0
TABLE
2
LAYER
5
2
100
AcDbSymbolTable
70
2
0
LAYER
5
50
100
AcDbSymbolTableRecord
100
AcDbLayerTableRecord
2
0
70
0
6
CONTINUOUS
0
ENDTAB
0
TABLE
2
STYLE
5
3
100
AcDbSymbolTable
70
1
0
STYLE
5
11
100
AcDbSymbolTableRecord
100
AcDbTextStyleTableRecord
2
STANDARD
70
0
0
ENDTAB
0
TABLE
2
VIEW
5
6
100
AcDbSymbolTable
70
0
0
ENDTAB
0
TABLE
2
UCS
5
7
100
AcDbSymbolTable
70
0
0
ENDTAB
0
TABLE
2
APPID
5
9
100
AcDbSymbolTable
70
2
0
APPID
5
12
100
AcDbSymbolTableRecord
100
AcDbRegAppTableRecord
2
ACAD
70
0
0
ENDTAB
0
TABLE
2
DIMSTYLE
5
A
100
AcDbSymbolTable
70
1
0
ENDTAB
0
TABLE
2
BLOCK_RECORD
5
1
100
AcDbSymbolTable
70
1
0
BLOCK_RECORD
5
1F
100
AcDbSymbolTableRecord
100
AcDbBlockTableRecord
2
*MODEL_SPACE
0
BLOCK_RECORD
5
1B
100
AcDbSymbolTableRecord
100
AcDbBlockTableRecord
2
*PAPER_SPACE
0
ENDTAB
0
ENDSEC
0
SECTION
2
BLOCKS
0
BLOCK
5
20
100
AcDbEntity
100
AcDbBlockBegin
2
*MODEL_SPACE
0
ENDBLK
5
21
100
AcDbEntity
100
AcDbBlockEnd
0
BLOCK
5
1C
100
AcDbEntity
100
AcDbBlockBegin
2
*PAPER_SPACE
0
ENDBLK
5
1D
100
AcDbEntity
100
AcDbBlockEnd
0
ENDSEC
0
SECTION
2
ENTITIES
0
LWPOLYLINE
5
100
100
AcDbEntity
8
0
100
AcDbPolyline
90
35
70
1
43
0.0
10
-12.69999999999918
20
-17.480050389983894
10
-2.464593749999997
20
-17.480050389983898
10
-1.1945937500000039
20
-16.210050389983902
10
-1.1945937500000228
20
-12.400050389983917
10
1.1945937499999773
20
-12.400050389983903
10
1.1945937499999861
20
-16.210050389983905
10
2.4645937499999895
20
-17.480050389983901
10
12.699999999999175
20
-17.480050389983898
10
15.862914475581547
20
-7.74560057899326
10
15.047524282742888
20
-6.1453072204422385
10
11.423998955658361
20
-4.9679524718737111
10
12.162298495906542
20
-2.6957001313477793
10
15.785823822991084
20
-3.8730548799163218
10
17.386117181542108
20
-3.057664687077656
10
20.549031657122995
20
6.6767851239134677
10
12.26841405654211
20
12.693005968885199
10
10.494475203274494
20
12.412041656440456
10
8.255013392040194
20
9.3296869078719062
10
6.3221201017919899
20
10.734016085333419
10
8.5615819130263091
20
13.816370833901976
10
8.2806176005815626
20
15.590309687169599
10
6.6835426082434424e-13
20
21.606530532141328
10
-8.2806176005815502
20
15.590309687169604
10
-8.5615819130262913
20
13.81637083390199
10
-6.3221201017919606
20
10.73401608533346
10
-8.2550133920401478
20
9.329686907871924
10
-10.494475203274478
20
12.412041656440472
10
-12.268414056542106
20
12.693005968885211
10
-20.5490316571234
20
6.6767851239122251
10
-17.386117181542108
20
-3.0576646870776414
10
-15.785823822991086
20
-3.8730548799162987
10
-12.162298495906569
20
-2.6957001313477367
10
-11.423998955658361
20
-4.9679524718736605
10
-15.047524282742897
20
-6.145307220442219
10
-15.862914475581555
20
-7.7456005789932494
0
ENDSEC
0
SECTION
2
OBJECTS
0
DICTIONARY
5
C
100
AcDbDictionary
3
ACAD_GROUP
350
D
3
ACAD_MLINESTYLE
350
17
0
DICTIONARY
5
D
100
AcDbDictionary
0
DICTIONARY
5
1A
330
C
100
AcDbDictionary
0
DICTIONARY
5
17
100
AcDbDictionary
0
ENDSEC
0
EOF
