0
SECTION
2
HEADER
9
$INSUNITS
70
1
9
$ACADVER
1
AC1014
9
$HANDSEED
5
FFFF
0
ENDSEC
0
SECTION
2
TABLES
0
TABLE
2
VPORT
5
8
100
AcDbSymbolTable
0
ENDTAB
0
TABLE
2
LTYPE
5
5
100
AcDbSymbolTable
0
LTYPE
5
14
100
AcDbSymbolTableRecord
100
AcDbLinetypeTableRecord
2
BYBLOCK
70
0
0
LTYPE
5
15
100
AcDbSymbolTableRecord
100
AcDbLinetypeTableRecord
2
BYLAYER
70
0
0
ENDTAB
0
TABLE
2
LAYER
5
2
100
AcDbSymbolTable
70
2
0
LAYER
5
50
100
AcDbSymbolTableRecord
100
AcDbLayerTableRecord
2
0
70
0
6
CONTINUOUS
0
ENDTAB
0
TABLE
2
STYLE
5
3
100
AcDbSymbolTable
70
1
0
STYLE
5
11
100
AcDbSymbolTableRecord
100
AcDbTextStyleTableRecord
2
STANDARD
70
0
0
ENDTAB
0
TABLE
2
VIEW
5
6
100
AcDbSymbolTable
70
0
0
ENDTAB
0
TABLE
2
UCS
5
7
100
AcDbSymbolTable
70
0
0
ENDTAB
0
TABLE
2
APPID
5
9
100
AcDbSymbolTable
70
2
0
APPID
5
12
100
AcDbSymbolTableRecord
100
AcDbRegAppTableRecord
2
ACAD
70
0
0
ENDTAB
0
TABLE
2
DIMSTYLE
5
A
100
AcDbSymbolTable
70
1
0
ENDTAB
0
TABLE
2
BLOCK_RECORD
5
1
100
AcDbSymbolTable
70
1
0
BLOCK_RECORD
5
1F
100
AcDbSymbolTableRecord
100
AcDbBlockTableRecord
2
*MODEL_SPACE
0
BLOCK_RECORD
5
1B
100
AcDbSymbolTableRecord
100
AcDbBlockTableRecord
2
*PAPER_SPACE
0
ENDTAB
0
ENDSEC
0
SECTION
2
BLOCKS
0
BLOCK
5
20
100
AcDbEntity
100
AcDbBlockBegin
2
*MODEL_SPACE
0
ENDBLK
5
21
100
AcDbEntity
100
AcDbBlockEnd
0
BLOCK
5
1C
100
AcDbEntity
100
AcDbBlockBegin
2
*PAPER_SPACE
0
ENDBLK
5
1D
100
AcDbEntity
100
AcDbBlockEnd
0
ENDSEC
0
SECTION
2
ENTITIES
0
LWPOLYLINE
5
100
100
AcDbEntity
8
0
100
AcDbPolyline
90
8
70
1
43
0.0
10
-11.67677669529664
20
-27.953190409292382
42
0.9999999925494194
10
-11.499999999999996
20
-27.776413713995762
10
-11.5
20
-27.622154604589021
42
0.99999999999999989
10
-11.676776695296638
20
-27.44537790929239
10
-12.323223304703358
20
-27.44537790929239
42
1.0000000074505806
10
-12.499999999999998
20
-27.622154604589021
10
-12.499999999999998
20
-27.776413713995751
42
0.99999999999999989
10
-12.32322330470336
20
-27.953190409292382
0
LWPOLYLINE
5
101
100
AcDbEntity
8
0
100
AcDbPolyline
90
8
70
1
43
0.0
10
-5.6767766952966401
20
-27.953190409292382
42
0.9999999925494194
10
-5.4999999999999964
20
-27.776413713995762
10
-5.4999999999999982
20
-27.622154604589021
42
0.99999999999999989
10
-5.6767766952966392
20
-27.44537790929239
10
-6.323223304703359
20
-27.44537790929239
42
1.0000000074505806
10
-6.5
20
-27.622154604589021
10
-6.5
20
-27.776413713995751
42
1.0000000074505806
10
-6.3232233047033608
20
-27.953190409292382
0
LWPOLYLINE
5
102
100
AcDbEntity
8
0
100
AcDbPolyline
90
8
70
1
43
0.0
10
6.323223304703359
20
-27.953190409292382
42
0.9999999925494194
10
6.5000000000000027
20
-27.776413713995762
10
6.5
20
-27.622154604589021
42
1.0000000074505806
10
6.3232233047033608
20
-27.44537790929239
10
5.6767766952966401
20
-27.44537790929239
42
1.0000000074505806
10
5.5
20
-27.622154604589021
10
5.4999999999999982
20
-27.776413713995751
42
0.99999999999999989
10
5.6767766952966392
20
-27.953190409292382
0
LWPOLYLINE
5
103
100
AcDbEntity
8
0
100
AcDbPolyline
90
8
70
1
43
0.0
10
12.323223304703358
20
-27.953190409292382
42
0.9999999925494194
10
12.500000000000002
20
-27.776413713995762
10
12.499999999999998
20
-27.622154604589021
42
0.99999999999999989
10
12.32322330470336
20
-27.44537790929239
10
11.67677669529664
20
-27.44537790929239
42
1.0000000074505806
10
11.5
20
-27.622154604589021
10
11.5
20
-27.776413713995751
42
0.99999999999999989
10
11.676776695296638
20
-27.953190409292382
0
LWPOLYLINE
5
104
100
AcDbEntity
8
0
100
AcDbPolyline
90
8
70
1
43
0.0
10
-11.676776695296637
20
-23.070377909292386
42
0.9999999925494194
10
-11.5
20
-22.893601213995748
10
-11.5
20
-22.739342104589024
42
0.9999999925494194
10
-11.676776695296637
20
-22.562565409292386
10
-12.323223304703362
20
-22.562565409292386
42
0.9999999925494194
10
-12.499999999999998
20
-22.739342104589024
10
-12.499999999999998
20
-22.893601213995748
42
0.9999999925494194
10
-12.323223304703362
20
-23.070377909292386
0
LWPOLYLINE
5
105
100
AcDbEntity
8
0
100
AcDbPolyline
90
8
70
1
43
0.0
10
-5.6767766952966365
20
-23.070377909292386
42
0.99999999999999989
10
-5.5
20
-22.893601213995748
10
-5.5
20
-22.739342104589024
42
0.99999999999999989
10
-5.6767766952966365
20
-22.562565409292386
10
-6.3232233047033635
20
-22.562565409292386
42
1.0000000074505806
10
-6.5
20
-22.739342104589024
10
-6.5
20
-22.893601213995748
42
1.0000000074505806
10
-6.3232233047033635
20
-23.070377909292386
0
LWPOLYLINE
5
106
100
AcDbEntity
8
0
100
AcDbPolyline
90
8
70
1
43
0.0
10
6.3232233047033635
20
-23.070377909292386
42
0.99999999999999989
10
6.5000000000000018
20
-22.893601213995748
10
6.5
20
-22.739342104589024
42
1.0000000074505806
10
6.3232233047033635
20
-22.562565409292386
10
5.6767766952966365
20
-22.562565409292386
42
0.99999999999999989
10
5.5
20
-22.739342104589024
10
5.5
20
-22.893601213995748
42
0.99999999999999989
10
5.6767766952966365
20
-23.070377909292386
0
LWPOLYLINE
5
107
100
AcDbEntity
8
0
100
AcDbPolyline
90
8
70
1
43
0.0
10
12.323223304703362
20
-23.070377909292386
42
0.9999999925494194
10
12.499999999999998
20
-22.893601213995748
10
12.499999999999998
20
-22.739342104589024
42
0.9999999925494194
10
12.323223304703362
20
-22.562565409292386
10
11.676776695296637
20
-22.562565409292386
42
0.9999999925494194
10
11.5
20
-22.739342104589024
10
11.5
20
-22.893601213995748
42
0.9999999925494194
10
11.676776695296637
20
-23.070377909292386
0
LWPOLYLINE
5
108
100
AcDbEntity
8
0
100
AcDbPolyline
90
8
70
1
43
0.0
10
-11.676776695296637
20
-18.187565409292386
42
0.9999999925494194
10
-11.5
20
-18.010788713995751
10
-11.5
20
-17.856529604589024
42
0.9999999925494194
10
-11.676776695296637
20
-17.679752909292386
10
-12.323223304703362
20
-17.679752909292386
42
0.9999999925494194
10
-12.499999999999998
20
-17.856529604589024
10
-12.499999999999998
20
-18.010788713995751
42
0.9999999925494194
10
-12.323223304703362
20
-18.187565409292386
0
LWPOLYLINE
5
109
100
AcDbEntity
8
0
100
AcDbPolyline
90
8
70
1
43
0.0
10
-5.6767766952966365
20
-18.187565409292386
42
0.99999999999999989
10
-5.5
20
-18.010788713995751
10
-5.5
20
-17.856529604589024
42
0.99999999999999989
10
-5.6767766952966365
20
-17.679752909292386
10
-6.3232233047033635
20
-17.679752909292386
42
1.0000000074505806
10
-6.5
20
-17.856529604589024
10
-6.5
20
-18.010788713995751
42
1.0000000074505806
10
-6.3232233047033635
20
-18.187565409292386
0
LWPOLYLINE
5
110
100
AcDbEntity
8
0
100
AcDbPolyline
90
8
70
1
43
0.0
10
6.3232233047033635
20
-18.187565409292386
42
0.99999999999999989
10
6.5000000000000018
20
-18.010788713995751
10
6.5
20
-17.856529604589024
42
1.0000000074505806
10
6.3232233047033635
20
-17.679752909292386
10
5.6767766952966365
20
-17.679752909292386
42
0.99999999999999989
10
5.5
20
-17.856529604589024
10
5.5
20
-18.010788713995751
42
0.99999999999999989
10
5.6767766952966365
20
-18.187565409292386
0
LWPOLYLINE
5
111
100
AcDbEntity
8
0
100
AcDbPolyline
90
8
70
1
43
0.0
10
12.323223304703362
20
-18.187565409292386
42
0.9999999925494194
10
12.499999999999998
20
-18.010788713995751
10
12.499999999999998
20
-17.856529604589024
42
0.9999999925494194
10
12.323223304703362
20
-17.679752909292386
10
11.676776695296637
20
-17.679752909292386
42
0.9999999925494194
10
11.5
20
-17.856529604589024
10
11.5
20
-18.010788713995751
42
0.9999999925494194
10
11.676776695296637
20
-18.187565409292386
0
LWPOLYLINE
5
112
100
AcDbEntity
8
0
100
AcDbPolyline
90
172
70
1
43
0.0
10
12.323223304703362
20
-13.31647165929239
42
0.9999999925494194
10
12.499999999999998
20
-13.139694963995751
10
12.499999999999998
20
-12.808659159292388
10
14.999999999999996
20
-12.808659159292388
10
14.999999999999996
20
-18.808659159292386
10
14.668964195296633
20
-18.808659159292386
42
0.99999999999999989
10
14.492187499999995
20
-18.985435854589024
10
14.492187499999993
20
-26.631882463995755
42
0.99999999999999989
10
14.668964195296637
20
-26.80865915929239
10
14.999999999999996
20
-26.80865915929239
10
14.999999999999996
20
-32.808659159292382
10
12.499999999999998
20
-32.808659159292382
10
12.499999999999998
20
-32.477623354589014
42
0.99999999999999989
10
12.32322330470336
20
-32.300846659292382
10
11.67677669529664
20
-32.300846659292382
42
1.0000000074505806
10
11.5
20
-32.477623354589014
10
11.5
20
-32.808659159292382
10
10.499999999999998
20
-32.808659159292382
10
10.499999999999998
20
-32.477623354589014
42
1.0000000074505806
10
10.32322330470336
20
-32.300846659292382
10
9.6767766952966401
20
-32.300846659292382
42
1.0000000074505806
10
9.4999999999999982
20
-32.477623354589014
10
9.4999999999999982
20
-32.808659159292382
10
8.5
20
-32.808659159292382
10
8.5
20
-32.477623354589014
42
1.0000000074505806
10
8.3232233047033599
20
-32.300846659292382
10
7.6767766952966401
20
-32.300846659292382
42
1.0000000074505806
10
7.5
20
-32.477623354589014
10
7.5
20
-32.808659159292382
10
6.5
20
-32.808659159292382
10
6.5
20
-32.477623354589014
42
1.0000000074505806
10
6.3232233047033608
20
-32.300846659292382
10
5.6767766952966401
20
-32.300846659292382
42
0.99999999999999989
10
5.5
20
-32.477623354589014
10
5.5
20
-32.808659159292382
10
4.4999999999999991
20
-32.808659159292382
10
4.5000000000000009
20
-32.477623354589014
42
1.0000000074505806
10
4.3232233047033599
20
-32.300846659292382
10
3.6767766952966401
20
-32.300846659292382
42
0.99999999999999989
10
3.5
20
-32.477623354589014
10
3.5
20
-32.808659159292382
10
2.4999999999999996
20
-32.808659159292382
10
2.5000000000000009
20
-32.477623354589014
42
0.99999999999999989
10
2.3232233047033604
20
-32.300846659292382
10
1.6767766952966394
20
-32.300846659292382
42
0.99999999999999989
10
1.4999999999999998
20
-32.477623354589014
10
1.4999999999999998
20
-32.808659159292382
10
0.49999999999999994
20
-32.808659159292382
10
0.50000000000000122
20
-32.477623354589014
42
0.99999999999999989
10
0.32322330470336086
20
-32.300846659292382
10
-0.32322330470336025
20
-32.300846659292382
42
0.99999999999999989
10
-0.49999999999999994
20
-32.477623354589014
10
-0.49999999999999994
20
-32.808659159292382
10
-1.5
20
-32.808659159292382
10
-1.4999999999999987
20
-32.477623354589014
42
0.99999999999999989
10
-1.676776695296639
20
-32.300846659292382
10
-2.3232233047033604
20
-32.300846659292382
42
0.99999999999999989
10
-2.5
20
-32.477623354589014
10
-2.5
20
-32.808659159292382
10
-3.5
20
-32.808659159292382
10
-3.4999999999999987
20
-32.477623354589014
42
1.0000000074505806
10
-3.6767766952966392
20
-32.300846659292382
10
-4.3232233047033599
20
-32.300846659292382
42
0.99999999999999989
10
-4.4999999999999991
20
-32.477623354589014
10
-4.4999999999999991
20
-32.808659159292382
10
-5.5
20
-32.808659159292382
10
-5.4999999999999982
20
-32.477623354589014
42
1.0000000074505806
10
-5.6767766952966392
20
-32.300846659292382
10
-6.323223304703359
20
-32.300846659292382
42
1.0000000074505806
10
-6.5
20
-32.477623354589014
10
-6.5
20
-32.808659159292382
10
-7.5
20
-32.808659159292382
10
-7.5
20
-32.477623354589014
42
1.0000000074505806
10
-7.6767766952966392
20
-32.300846659292382
10
-8.3232233047033581
20
-32.300846659292382
42
1.0000000074505806
10
-8.5
20
-32.477623354589014
10
-8.5
20
-32.808659159292382
10
-9.4999999999999982
20
-32.808659159292382
10
-9.4999999999999982
20
-32.477623354589014
42
1.0000000074505806
10
-9.6767766952966383
20
-32.300846659292382
10
-10.323223304703358
20
-32.300846659292382
42
1.0000000074505806
10
-10.499999999999998
20
-32.477623354589014
10
-10.499999999999998
20
-32.808659159292382
10
-11.5
20
-32.808659159292382
10
-11.5
20
-32.477623354589014
42
0.99999999999999989
10
-11.676776695296638
20
-32.300846659292382
10
-12.323223304703358
20
-32.300846659292382
42
1.0000000074505806
10
-12.499999999999998
20
-32.477623354589014
10
-12.499999999999998
20
-32.808659159292382
10
-15.000000000000002
20
-32.808659159292382
10
-14.999999999999996
20
-26.80865915929239
10
-14.668964195296633
20
-26.80865915929239
42
0.99999999999999989
10
-14.492187499999995
20
-26.631882463995755
10
-14.492187499999995
20
-18.985435854589024
42
0.99999999999999989
10
-14.668964195296633
20
-18.808659159292386
10
-14.999999999999996
20
-18.808659159292386
10
-14.999999999999996
20
-12.808659159292388
10
-12.499999999999998
20
-12.808659159292388
10
-12.499999999999998
20
-13.139694963995751
42
0.9999999925494194
10
-12.323223304703362
20
-13.31647165929239
10
-11.676776695296637
20
-13.31647165929239
42
0.9999999925494194
10
-11.5
20
-13.139694963995751
10
-11.5
20
-12.808659159292388
10
-10.499999999999998
20
-12.808659159292388
10
-10.499999999999998
20
-13.139694963995751
42
1.0000000074505806
10
-10.323223304703362
20
-13.31647165929239
10
-9.6767766952966348
20
-13.31647165929239
42
1.0000000074505806
10
-9.4999999999999982
20
-13.139694963995751
10
-9.4999999999999982
20
-12.808659159292388
10
-8.5
20
-12.808659159292388
10
-8.5
20
-13.139694963995751
42
1.0000000074505806
10
-8.3232233047033635
20
-13.31647165929239
10
-7.6767766952966365
20
-13.31647165929239
42
1.0000000074505806
10
-7.5
20
-13.139694963995751
10
-7.5
20
-12.808659159292388
10
-6.5
20
-12.808659159292388
10
-6.5
20
-13.139694963995751
42
1.0000000074505806
10
-6.3232233047033635
20
-13.31647165929239
10
-5.6767766952966365
20
-13.31647165929239
42
0.99999999999999989
10
-5.5
20
-13.139694963995751
10
-5.5
20
-12.808659159292388
10
-4.4999999999999991
20
-12.808659159292388
10
-4.4999999999999991
20
-13.139694963995751
42
1.0000000074505806
10
-4.3232233047033635
20
-13.31647165929239
10
-3.6767766952966365
20
-13.31647165929239
42
1.0000000074505806
10
-3.5
20
-13.139694963995751
10
-3.5
20
-12.808659159292388
10
-2.5
20
-12.808659159292388
10
-2.4999999999999996
20
-13.139694963995751
42
0.99999999999999989
10
-2.3232233047033635
20
-13.31647165929239
10
-1.6767766952966361
20
-13.31647165929239
42
0.99999999999999989
10
-1.5
20
-13.139694963995751
10
-1.5
20
-12.808659159292388
10
-0.49999999999999994
20
-12.808659159292388
10
-0.49999999999999972
20
-13.139694963995751
42
0.99999999999999989
10
-0.32322330470336358
20
-13.31647165929239
10
0.32322330470336363
20
-13.31647165929239
42
0.99999999999999989
10
0.49999999999999994
20
-13.139694963995751
10
0.49999999999999994
20
-12.808659159292388
10
1.4999999999999998
20
-12.808659159292388
10
1.5
20
-13.139694963995751
42
0.99999999999999989
10
1.6767766952966359
20
-13.31647165929239
10
2.323223304703363
20
-13.31647165929239
42
0.99999999999999989
10
2.4999999999999996
20
-13.139694963995751
10
2.4999999999999996
20
-12.808659159292388
10
3.5
20
-12.808659159292388
10
3.5
20
-13.139694963995751
42
1.0000000074505806
10
3.6767766952966365
20
-13.31647165929239
10
4.3232233047033635
20
-13.31647165929239
42
1.0000000074505806
10
4.4999999999999991
20
-13.139694963995751
10
4.4999999999999991
20
-12.808659159292388
10
5.5
20
-12.808659159292388
10
5.5
20
-13.139694963995751
42
0.99999999999999989
10
5.6767766952966365
20
-13.31647165929239
10
6.3232233047033635
20
-13.31647165929239
42
1.0000000074505806
10
6.5
20
-13.139694963995751
10
6.5
20
-12.808659159292388
10
7.5
20
-12.808659159292388
10
7.5
20
-13.139694963995751
42
1.0000000074505806
10
7.6767766952966365
20
-13.31647165929239
10
8.3232233047033635
20
-13.31647165929239
42
1.0000000074505806
10
8.5
20
-13.139694963995751
10
8.5
20
-12.808659159292388
10
9.4999999999999982
20
-12.808659159292388
10
9.4999999999999982
20
-13.139694963995751
42
1.0000000074505806
10
9.6767766952966348
20
-13.31647165929239
10
10.323223304703362
20
-13.31647165929239
42
1.0000000074505806
10
10.499999999999998
20
-13.139694963995751
10
10.499999999999998
20
-12.808659159292388
10
11.5
20
-12.808659159292388
10
11.5
20
-13.139694963995751
42
0.9999999925494194
10
11.676776695296637
20
-13.31647165929239
0
ENDSEC
0
SECTION
2
OBJECTS
0
DICTIONARY
5
C
100
AcDbDictionary
3
ACAD_GROUP
350
D
3
ACAD_MLINESTYLE
350
17
0
DICTIONARY
5
D
100
AcDbDictionary
0
DICTIONARY
5
1A
330
C
100
AcDbDictionary
0
DICTIONARY
5
17
100
AcDbDictionary
0
ENDSEC
0
EOF
