0
SECTION
2
HEADER
9
$INSUNITS
70
1
9
$ACADVER
1
AC1014
9
$HANDSEED
5
FFFF
0
ENDSEC
0
SECTION
2
TABLES
0
TABLE
2
VPORT
5
8
100
AcDbSymbolTable
0
ENDTAB
0
TABLE
2
LTYPE
5
5
100
AcDbSymbolTable
0
LTYPE
5
14
100
AcDbSymbolTableRecord
100
AcDbLinetypeTableRecord
2
BYBLOCK
70
0
0
LTYPE
5
15
100
AcDbSymbolTableRecord
100
AcDbLinetypeTableRecord
2
BYLAYER
70
0
0
ENDTAB
0
TABLE
2
LAYER
5
2
100
AcDbSymbolTable
70
2
0
LAYER
5
50
100
AcDbSymbolTableRecord
100
AcDbLayerTableRecord
2
0
70
0
6
CONTINUOUS
0
ENDTAB
0
TABLE
2
STYLE
5
3
100
AcDbSymbolTable
70
1
0
STYLE
5
11
100
AcDbSymbolTableRecord
100
AcDbTextStyleTableRecord
2
STANDARD
70
0
0
ENDTAB
0
TABLE
2
VIEW
5
6
100
AcDbSymbolTable
70
0
0
ENDTAB
0
TABLE
2
UCS
5
7
100
AcDbSymbolTable
70
0
0
ENDTAB
0
TABLE
2
APPID
5
9
100
AcDbSymbolTable
70
2
0
APPID
5
12
100
AcDbSymbolTableRecord
100
AcDbRegAppTableRecord
2
ACAD
70
0
0
ENDTAB
0
TABLE
2
DIMSTYLE
5
A
100
AcDbSymbolTable
70
1
0
ENDTAB
0
TABLE
2
BLOCK_RECORD
5
1
100
AcDbSymbolTable
70
1
0
BLOCK_RECORD
5
1F
100
AcDbSymbolTableRecord
100
AcDbBlockTableRecord
2
*MODEL_SPACE
0
BLOCK_RECORD
5
1B
100
AcDbSymbolTableRecord
100
AcDbBlockTableRecord
2
*PAPER_SPACE
0
ENDTAB
0
ENDSEC
0
SECTION
2
BLOCKS
0
BLOCK
5
20
100
AcDbEntity
100
AcDbBlockBegin
2
*MODEL_SPACE
0
ENDBLK
5
21
100
AcDbEntity
100
AcDbBlockEnd
0
BLOCK
5
1C
100
AcDbEntity
100
AcDbBlockBegin
2
*PAPER_SPACE
0
ENDBLK
5
1D
100
AcDbEntity
100
AcDbBlockEnd
0
ENDSEC
0
SECTION
2
ENTITIES
0
LWPOLYLINE
5
100
100
AcDbEntity
8
0
100
AcDbPolyline
90
46
70
1
43
0.0
10
5.5
20
-0.17677669529663698
42
0.99999999999999989
10
5.3232233047033626
20
2.6215446612005579e-16
10
-5.3232233047033626
20
-2.9503958331574039e-16
42
1.0000000074505806
10
-5.5
20
-0.17677669529663706
10
-5.5
20
-0.50781250000000011
10
-6.5
20
-0.5078125
10
-6.5
20
-0.1767766952966365
42
0.99999999999999989
10
-6.6767766952966383
20
-1.5456283726653587e-16
10
-11.323223304703362
20
-4.8080524688491025e-16
42
0.99999999999999989
10
-11.5
20
-0.1767766952966367
10
-11.5
20
-0.50781250000000011
10
-12.499999999999998
20
-0.5078125
10
-12.499999999999998
20
-0.17677669529663645
42
0.9999999925494194
10
-12.676776695296637
20
-1.5456283726653587e-16
10
-14.492187499999998
20
0
10
-14.492187499999998
20
7.9999999999999885
10
-7.630859375
20
7.9999999999999964
10
-7.630859375
20
4.176776695296633
42
0.99999999999999989
10
-7.4540826797033635
20
3.9999999999999969
10
-7.2998235702966356
20
3.999999999999996
42
0.99999999999999989
10
-7.1230468749999991
20
4.1767766952966339
10
-7.1230468749999991
20
7.9999999999999964
10
-0.25390624999999994
20
7.9999999999999991
10
-0.25390624999999994
20
4.1767766952966365
42
0.9999999925494194
10
-0.07712955470336344
20
3.9999999999999996
10
0.077129554703363412
20
3.9999999999999996
42
0.99999999999999989
10
0.25390624999999994
20
4.1767766952966365
10
0.25390625000000056
20
7.9999999999999991
10
7.1230468749999991
20
8.0000000000000018
10
7.1230468749999991
20
4.1767766952966392
42
0.99999999999999989
10
7.2998235702966356
20
4.0000000000000027
10
7.4540826797033652
20
4.0000000000000018
42
0.99999999999999989
10
7.630859375
20
4.176776695296641
10
7.6308593750000009
20
7.999999999999992
10
14.492187499999995
20
7.9999999999999938
10
14.492187499999995
20
-5.3356406126255136e-17
10
12.676776695296637
20
-4.2616828701162503e-16
42
0.99999999999999989
10
12.499999999999998
20
-0.17677669529663653
10
12.499999999999998
20
-0.50781250000000011
10
11.5
20
-0.5078125
10
11.5
20
-0.1767766952966365
42
0.99999999999999989
10
11.323223304703362
20
-1.5456283726653587e-16
10
6.6767766952966383
20
-5.0266003083422441e-16
42
0.99999999999999989
10
6.5
20
-0.1767766952966367
10
6.5
20
-0.50781250000000011
10
5.5
20
-0.5078125
0
ENDSEC
0
SECTION
2
OBJECTS
0
DICTIONARY
5
C
100
AcDbDictionary
3
ACAD_GROUP
350
D
3
ACAD_MLINESTYLE
350
17
0
DICTIONARY
5
D
100
AcDbDictionary
0
DICTIONARY
5
1A
330
C
100
AcDbDictionary
0
DICTIONARY
5
17
100
AcDbDictionary
0
ENDSEC
0
EOF
