0
SECTION
2
HEADER
9
$INSUNITS
70
1
9
$ACADVER
1
AC1014
9
$HANDSEED
5
FFFF
0
ENDSEC
0
SECTION
2
TABLES
0
TABLE
2
VPORT
5
8
100
AcDbSymbolTable
0
ENDTAB
0
TABLE
2
LTYPE
5
5
100
AcDbSymbolTable
0
LTYPE
5
14
100
AcDbSymbolTableRecord
100
AcDbLinetypeTableRecord
2
BYBLOCK
70
0
0
LTYPE
5
15
100
AcDbSymbolTableRecord
100
AcDbLinetypeTableRecord
2
BYLAYER
70
0
0
ENDTAB
0
TABLE
2
LAYER
5
2
100
AcDbSymbolTable
70
2
0
LAYER
5
50
100
AcDbSymbolTableRecord
100
AcDbLayerTableRecord
2
0
70
0
6
CONTINUOUS
0
ENDTAB
0
TABLE
2
STYLE
5
3
100
AcDbSymbolTable
70
1
0
STYLE
5
11
100
AcDbSymbolTableRecord
100
AcDbTextStyleTableRecord
2
STANDARD
70
0
0
ENDTAB
0
TABLE
2
VIEW
5
6
100
AcDbSymbolTable
70
0
0
ENDTAB
0
TABLE
2
UCS
5
7
100
AcDbSymbolTable
70
0
0
ENDTAB
0
TABLE
2
APPID
5
9
100
AcDbSymbolTable
70
2
0
APPID
5
12
100
AcDbSymbolTableRecord
100
AcDbRegAppTableRecord
2
ACAD
70
0
0
ENDTAB
0
TABLE
2
DIMSTYLE
5
A
100
AcDbSymbolTable
70
1
0
ENDTAB
0
TABLE
2
BLOCK_RECORD
5
1
100
AcDbSymbolTable
70
1
0
BLOCK_RECORD
5
1F
100
AcDbSymbolTableRecord
100
AcDbBlockTableRecord
2
*MODEL_SPACE
0
BLOCK_RECORD
5
1B
100
AcDbSymbolTableRecord
100
AcDbBlockTableRecord
2
*PAPER_SPACE
0
ENDTAB
0
ENDSEC
0
SECTION
2
BLOCKS
0
BLOCK
5
20
100
AcDbEntity
100
AcDbBlockBegin
2
*MODEL_SPACE
0
ENDBLK
5
21
100
AcDbEntity
100
AcDbBlockEnd
0
BLOCK
5
1C
100
AcDbEntity
100
AcDbBlockBegin
2
*PAPER_SPACE
0
ENDBLK
5
1D
100
AcDbEntity
100
AcDbBlockEnd
0
ENDSEC
0
SECTION
2
ENTITIES
0
LWPOLYLINE
5
100
100
AcDbEntity
8
0
100
AcDbPolyline
90
52
70
1
43
0.0
10
-33.975872850793557
20
-0.17677669529663989
42
0.9999999925494194
10
-34.152649546090174
20
3.1360585554548594e-15
10
-39.97587285079355
20
0
10
-39.97587285079355
20
1.0000000000000002
10
-39.644837046090181
20
0.999999999999999
42
0.99999999999999989
10
-39.46806035079355
20
1.1767766952966394
10
-39.46806035079355
20
1.8232233047033604
42
0.99999999999999989
10
-39.644837046090181
20
1.9999999999999998
10
-39.97587285079355
20
1.9999999999999998
10
-39.97587285079355
20
3
10
-39.644837046090181
20
2.9999999999999987
42
1.0000000074505806
10
-39.46806035079355
20
3.1767766952966392
10
-39.46806035079355
20
3.8232233047033599
42
1.0000000074505806
10
-39.644837046090181
20
3.9999999999999996
10
-39.97587285079355
20
3.9999999999999996
10
-39.97587285079355
20
5
10
-39.644837046090181
20
4.9999999999999982
42
0.99999999999999989
10
-39.46806035079355
20
5.1767766952966392
10
-39.46806035079355
20
5.8232233047033599
42
1.0000000074505806
10
-39.644837046090181
20
6
10
-39.97587285079355
20
6
10
-39.97587285079355
20
7
10
-39.644837046090181
20
6.9999999999999982
42
0.99999999999999989
10
-39.46806035079355
20
7.1767766952966392
10
-39.46806035079355
20
7.9999999999999991
10
-20.483685350793557
20
7.9999999999999991
10
-20.483685350793557
20
7.1767766952966365
42
0.9999999925494194
10
-20.306908655496919
20
7
10
-19.975872850793554
20
7
10
-19.975872850793554
20
6
10
-20.306908655496919
20
6
42
0.99999999999999989
10
-20.483685350793557
20
5.8232233047033635
10
-20.483685350793557
20
5.1767766952966365
42
0.99999999999999989
10
-20.306908655496919
20
5
10
-19.975872850793554
20
5
10
-19.975872850793554
20
3.9999999999999996
10
-20.306908655496919
20
3.9999999999999996
42
1.0000000074505806
10
-20.483685350793557
20
3.8232233047033635
10
-20.483685350793557
20
3.1767766952966365
42
0.99999999999999989
10
-20.306908655496919
20
3
10
-19.975872850793554
20
3
10
-19.975872850793554
20
1.9999999999999998
10
-20.306908655496919
20
1.9999999999999996
42
0.99999999999999989
10
-20.483685350793557
20
1.8232233047033635
10
-20.483685350793557
20
1.1767766952966365
42
0.99999999999999989
10
-20.306908655496919
20
1.0000000000000002
10
-19.975872850793554
20
1.0000000000000002
10
-19.975872850793554
20
0
10
-25.799096155496919
20
1.070884413516391e-15
42
0.99999999999999989
10
-25.975872850793554
20
-0.17677669529663934
10
-25.975872850793554
20
-0.50781249999999989
10
-33.975872850793557
20
-0.50781249999999989
0
ENDSEC
0
SECTION
2
OBJECTS
0
DICTIONARY
5
C
100
AcDbDictionary
3
ACAD_GROUP
350
D
3
ACAD_MLINESTYLE
350
17
0
DICTIONARY
5
D
100
AcDbDictionary
0
DICTIONARY
5
1A
330
C
100
AcDbDictionary
0
DICTIONARY
5
17
100
AcDbDictionary
0
ENDSEC
0
EOF
