0
SECTION
2
HEADER
9
$INSUNITS
70
1
9
$ACADVER
1
AC1014
9
$HANDSEED
5
FFFF
0
ENDSEC
0
SECTION
2
TABLES
0
TABLE
2
VPORT
5
8
100
AcDbSymbolTable
0
ENDTAB
0
TABLE
2
LTYPE
5
5
100
AcDbSymbolTable
0
LTYPE
5
14
100
AcDbSymbolTableRecord
100
AcDbLinetypeTableRecord
2
BYBLOCK
70
0
0
LTYPE
5
15
100
AcDbSymbolTableRecord
100
AcDbLinetypeTableRecord
2
BYLAYER
70
0
0
ENDTAB
0
TABLE
2
LAYER
5
2
100
AcDbSymbolTable
70
2
0
LAYER
5
50
100
AcDbSymbolTableRecord
100
AcDbLayerTableRecord
2
0
70
0
6
CONTINUOUS
0
ENDTAB
0
TABLE
2
STYLE
5
3
100
AcDbSymbolTable
70
1
0
STYLE
5
11
100
AcDbSymbolTableRecord
100
AcDbTextStyleTableRecord
2
STANDARD
70
0
0
ENDTAB
0
TABLE
2
VIEW
5
6
100
AcDbSymbolTable
70
0
0
ENDTAB
0
TABLE
2
UCS
5
7
100
AcDbSymbolTable
70
0
0
ENDTAB
0
TABLE
2
APPID
5
9
100
AcDbSymbolTable
70
2
0
APPID
5
12
100
AcDbSymbolTableRecord
100
AcDbRegAppTableRecord
2
ACAD
70
0
0
ENDTAB
0
TABLE
2
DIMSTYLE
5
A
100
AcDbSymbolTable
70
1
0
ENDTAB
0
TABLE
2
BLOCK_RECORD
5
1
100
AcDbSymbolTable
70
1
0
BLOCK_RECORD
5
1F
100
AcDbSymbolTableRecord
100
AcDbBlockTableRecord
2
*MODEL_SPACE
0
BLOCK_RECORD
5
1B
100
AcDbSymbolTableRecord
100
AcDbBlockTableRecord
2
*PAPER_SPACE
0
ENDTAB
0
ENDSEC
0
SECTION
2
BLOCKS
0
BLOCK
5
20
100
AcDbEntity
100
AcDbBlockBegin
2
*MODEL_SPACE
0
ENDBLK
5
21
100
AcDbEntity
100
AcDbBlockEnd
0
BLOCK
5
1C
100
AcDbEntity
100
AcDbBlockBegin
2
*PAPER_SPACE
0
ENDBLK
5
1D
100
AcDbEntity
100
AcDbBlockEnd
0
ENDSEC
0
SECTION
2
ENTITIES
0
LWPOLYLINE
5
100
100
AcDbEntity
8
0
100
AcDbPolyline
90
8
70
1
43
0.0
10
7.4540826797033617
20
2.5000000000000031
42
0.99999999999999989
10
7.6308593749999973
20
2.6767766952966396
10
7.6308593750000009
20
5.3232233047033679
42
0.99999999999999989
10
7.4540826797033617
20
5.5000000000000027
10
7.2998235702966365
20
5.5000000000000027
42
0.99999999999999989
10
7.123046875
20
5.3232233047033644
10
7.123046875
20
2.6767766952966401
42
0.99999999999999989
10
7.2998235702966365
20
2.5000000000000027
0
LWPOLYLINE
5
101
100
AcDbEntity
8
0
100
AcDbPolyline
90
8
70
1
43
0.0
10
0.077129554703363343
20
2.5
42
0.99999999999999989
10
0.25390624999999978
20
2.676776695296637
10
0.25390625000000039
20
5.3232233047033635
42
0.99999999999999989
10
0.077129554703362926
20
5.5
10
-0.077129554703363079
20
5.5000000000000009
42
0.99999999999999989
10
-0.25390625000000056
20
5.3232233047033635
10
-0.25390625000000056
20
2.6767766952966361
42
0.99999999999999989
10
-0.077129554703362926
20
2.5
0
LWPOLYLINE
5
102
100
AcDbEntity
8
0
100
AcDbPolyline
90
8
70
1
43
0.0
10
-7.2998235702966365
20
2.4999999999999973
42
0.99999999999999989
10
-7.1230468749999991
20
2.6767766952966339
10
-7.123046875
20
5.323223304703359
42
0.99999999999999989
10
-7.2998235702966365
20
5.4999999999999973
10
-7.4540826797033617
20
5.4999999999999973
42
0.9999999925494194
10
-7.630859375
20
5.3232233047033608
10
-7.630859375
20
2.6767766952966339
42
0.99999999999999989
10
-7.4540826797033617
20
2.4999999999999973
0
LWPOLYLINE
5
103
100
AcDbEntity
8
0
100
AcDbPolyline
90
124
70
1
43
0.0
10
14.492187499999995
20
6.1767766952966392
42
0.99999999999999989
10
14.668964195296628
20
5.9999999999999964
10
14.999999999999993
20
6
10
14.999999999999993
20
5
10
14.668964195296631
20
5
42
0.99999999999999989
10
14.492187499999995
20
4.8232233047033608
10
14.492187499999995
20
4.1767766952966392
42
0.99999999999999989
10
14.668964195296631
20
3.9999999999999996
10
14.999999999999993
20
3.9999999999999996
10
14.999999999999993
20
3
10
14.668964195296631
20
3
42
0.99999999999999989
10
14.492187499999995
20
2.8232233047033612
10
14.492187499999995
20
2.1767766952966392
42
0.99999999999999989
10
14.668964195296631
20
1.9999999999999998
10
14.999999999999993
20
1.9999999999999998
10
14.999999999999993
20
1.0000000000000002
10
14.668964195296631
20
1
42
0.99999999999999989
10
14.492187499999995
20
0.82322330470336136
10
14.492187499999995
20
0
10
12.676776695296637
20
-2.5133001541711221e-16
42
0.99999999999999989
10
12.499999999999998
20
-0.17677669529663637
10
12.499999999999998
20
-0.50781249999999989
10
11.5
20
-0.50781249999999989
10
11.5
20
-0.17677669529663623
42
0.99999999999999989
10
11.323223304703362
20
0
10
10.676776695296637
20
-2.6225740739176924e-16
42
0.99999999999999989
10
10.499999999999998
20
-0.17677669529663637
10
10.499999999999998
20
-0.50781249999999989
10
9.4999999999999982
20
-0.50781249999999989
10
9.4999999999999982
20
-0.17677669529663617
42
0.99999999999999989
10
9.3232233047033617
20
0
10
8.6767766952966365
20
-2.6225740739176924e-16
42
0.99999999999999989
10
8.5
20
-0.17677669529663637
10
8.5
20
-0.50781249999999989
10
7.5
20
-0.50781249999999989
10
7.5
20
-0.17677669529663623
42
0.99999999999999989
10
7.3232233047033617
20
0
10
6.6767766952966383
20
-2.6225740739176924e-16
42
0.99999999999999989
10
6.5
20
-0.17677669529663637
10
6.5
20
-0.50781249999999989
10
5.5
20
-0.50781249999999989
10
5.5
20
-0.17677669529663706
42
0.99999999999999989
10
5.3232233047033635
20
0
10
4.6767766952966356
20
1.2020131172122756e-16
42
0.99999999999999989
10
4.4999999999999991
20
-0.17677669529663706
10
4.4999999999999991
20
-0.50781249999999989
10
3.5
20
-0.50781249999999989
10
3.5
20
-0.17677669529663706
42
0.99999999999999989
10
3.3232233047033635
20
0
10
2.676776695296637
20
-6.556435184794231e-17
42
0.99999999999999989
10
2.4999999999999996
20
-0.1767766952966367
10
2.4999999999999996
20
-0.50781249999999989
10
1.4999999999999998
20
-0.50781249999999989
10
1.4999999999999998
20
-0.176776695296637
42
0.99999999999999989
10
1.323223304703363
20
0
10
0.67677669529663687
20
-2.1854783949314103e-17
42
0.99999999999999989
10
0.49999999999999994
20
-0.17677669529663689
10
0.49999999999999994
20
-0.50781249999999989
10
-0.49999999999999994
20
-0.50781249999999989
10
-0.49999999999999994
20
-0.17677669529663692
42
0.99999999999999989
10
-0.67677669529663675
20
0
10
-1.323223304703363
20
1.0927391974657052e-17
42
1.0000000074505806
10
-1.5
20
-0.17677669529663689
10
-1.5
20
-0.50781249999999989
10
-2.5
20
-0.50781249999999989
10
-2.5
20
-0.176776695296637
42
0.99999999999999989
10
-2.676776695296637
20
0
10
-3.3232233047033635
20
1.2020131172122756e-16
42
0.99999999999999989
10
-3.5
20
-0.17677669529663706
10
-3.5
20
-0.50781249999999989
10
-4.4999999999999991
20
-0.50781249999999989
10
-4.4999999999999991
20
-0.17677669529663706
42
0.99999999999999989
10
-4.6767766952966356
20
0
10
-5.3232233047033635
20
1.3112870369588462e-16
42
0.99999999999999989
10
-5.5
20
-0.17677669529663706
10
-5.5
20
-0.50781249999999989
10
-6.5
20
-0.50781249999999989
10
-6.5
20
-0.17677669529663623
42
0.99999999999999989
10
-6.6767766952966383
20
0
10
-7.3232233047033617
20
-2.6225740739176924e-16
42
0.99999999999999989
10
-7.5
20
-0.17677669529663637
10
-7.5
20
-0.50781249999999989
10
-8.5
20
-0.50781249999999989
10
-8.5
20
-0.17677669529663623
42
0.99999999999999989
10
-8.6767766952966365
20
0
10
-9.3232233047033617
20
-2.6225740739176924e-16
42
0.99999999999999989
10
-9.4999999999999982
20
-0.17677669529663637
10
-9.4999999999999982
20
-0.50781249999999989
10
-10.499999999999998
20
-0.50781249999999989
10
-10.499999999999998
20
-0.17677669529663623
42
0.99999999999999989
10
-10.676776695296637
20
0
10
-11.323223304703362
20
-2.5133001541711221e-16
42
0.99999999999999989
10
-11.5
20
-0.17677669529663637
10
-11.5
20
-0.50781249999999989
10
-12.499999999999998
20
-0.50781249999999989
10
-12.499999999999998
20
-0.17677669529663623
42
0.99999999999999989
10
-12.676776695296637
20
0
10
-14.492187499999998
20
0
10
-14.492187499999998
20
0.82322330470334859
42
0.99999999999999989
10
-14.668964195296631
20
0.99999999999999045
10
-14.999999999999993
20
0.99999999999998979
10
-14.999999999999993
20
1.9999999999999893
10
-14.668964195296631
20
1.9999999999999898
42
0.99999999999999989
10
-14.492187499999998
20
2.1767766952966312
10
-14.492187499999998
20
2.8232233047033484
42
0.99999999999999989
10
-14.668964195296631
20
2.9999999999999898
10
-14.999999999999993
20
2.9999999999999898
10
-15
20
3.9999999999999893
10
-14.668964195296633
20
3.9999999999999898
42
0.99999999999999989
10
-14.492187499999998
20
4.1767766952966294
10
-14.492187499999998
20
4.8232233047033537
42
0.99999999999999989
10
-14.668964195296637
20
4.9999999999999902
10
-15
20
4.9999999999999893
10
-15
20
5.9999999999999893
10
-14.668964195296637
20
5.9999999999999902
42
0.99999999999999989
10
-14.492187499999998
20
6.1767766952966259
10
-14.492187499999998
20
6.8232233047033519
42
0.9999999925494194
10
-14.668964195296637
20
6.9999999999999885
10
-15
20
6.9999999999999885
10
-15
20
7.9999999999999885
10
14.999999999999993
20
7.9999999999999991
10
14.999999999999993
20
7
10
14.668964195296631
20
7
42
0.99999999999999989
10
14.492187499999995
20
6.8232233047033608
0
ENDSEC
0
SECTION
2
OBJECTS
0
DICTIONARY
5
C
100
AcDbDictionary
3
ACAD_GROUP
350
D
3
ACAD_MLINESTYLE
350
17
0
DICTIONARY
5
D
100
AcDbDictionary
0
DICTIONARY
5
1A
330
C
100
AcDbDictionary
0
DICTIONARY
5
17
100
AcDbDictionary
0
ENDSEC
0
EOF
