0
SECTION
2
HEADER
9
$INSUNITS
70
1
9
$ACADVER
1
AC1014
9
$HANDSEED
5
FFFF
0
ENDSEC
0
SECTION
2
TABLES
0
TABLE
2
VPORT
5
8
100
AcDbSymbolTable
0
ENDTAB
0
TABLE
2
LTYPE
5
5
100
AcDbSymbolTable
0
LTYPE
5
14
100
AcDbSymbolTableRecord
100
AcDbLinetypeTableRecord
2
BYBLOCK
70
0
0
LTYPE
5
15
100
AcDbSymbolTableRecord
100
AcDbLinetypeTableRecord
2
BYLAYER
70
0
0
ENDTAB
0
TABLE
2
LAYER
5
2
100
AcDbSymbolTable
70
2
0
LAYER
5
50
100
AcDbSymbolTableRecord
100
AcDbLayerTableRecord
2
0
70
0
6
CONTINUOUS
0
ENDTAB
0
TABLE
2
STYLE
5
3
100
AcDbSymbolTable
70
1
0
STYLE
5
11
100
AcDbSymbolTableRecord
100
AcDbTextStyleTableRecord
2
STANDARD
70
0
0
ENDTAB
0
TABLE
2
VIEW
5
6
100
AcDbSymbolTable
70
0
0
ENDTAB
0
TABLE
2
UCS
5
7
100
AcDbSymbolTable
70
0
0
ENDTAB
0
TABLE
2
APPID
5
9
100
AcDbSymbolTable
70
2
0
APPID
5
12
100
AcDbSymbolTableRecord
100
AcDbRegAppTableRecord
2
ACAD
70
0
0
ENDTAB
0
TABLE
2
DIMSTYLE
5
A
100
AcDbSymbolTable
70
1
0
ENDTAB
0
TABLE
2
BLOCK_RECORD
5
1
100
AcDbSymbolTable
70
1
0
BLOCK_RECORD
5
1F
100
AcDbSymbolTableRecord
100
AcDbBlockTableRecord
2
*MODEL_SPACE
0
BLOCK_RECORD
5
1B
100
AcDbSymbolTableRecord
100
AcDbBlockTableRecord
2
*PAPER_SPACE
0
ENDTAB
0
ENDSEC
0
SECTION
2
BLOCKS
0
BLOCK
5
20
100
AcDbEntity
100
AcDbBlockBegin
2
*MODEL_SPACE
0
ENDBLK
5
21
100
AcDbEntity
100
AcDbBlockEnd
0
BLOCK
5
1C
100
AcDbEntity
100
AcDbBlockBegin
2
*PAPER_SPACE
0
ENDBLK
5
1D
100
AcDbEntity
100
AcDbBlockEnd
0
ENDSEC
0
SECTION
2
ENTITIES
0
LWPOLYLINE
5
100
100
AcDbEntity
8
0
100
AcDbPolyline
90
34
70
1
43
0.0
10
-4.7049294223483891
20
17
42
0.99999999999999989
10
-4.8817061176450256
20
16.823223304703362
10
-4.8817061176450247
20
13.000000000000004
10
-9.2352217426450256
20
13.000000000000004
10
-9.2352217426450256
20
15.323223304703365
42
0.9999999925494194
10
-9.4119984379416621
20
15.500000000000004
10
-9.7430342426450256
20
15.500000000000004
10
-9.7430342426450256
20
18.500000000000004
10
-9.4119984379416621
20
18.500000000000004
42
0.9999999925494194
10
-9.2352217426450256
20
18.676776695296638
10
-9.2352217426450256
20
21.000000000000004
10
9.7491532573549726
20
21.000000000000004
10
9.7491532573549726
20
18.676776695296638
42
0.9999999925494194
10
9.9259299526516092
20
18.500000000000004
10
10.256965757354971
20
18.500000000000004
10
10.256965757354971
20
15.500000000000004
10
9.9259299526516092
20
15.500000000000004
42
0.9999999925494194
10
9.7491532573549726
20
15.323223304703365
10
9.7491532573549726
20
13.000000000000004
10
5.3800126323549726
20
13.000000000000004
10
5.3800126323549726
20
16.823223304703362
42
1.0000000074505806
10
5.2032359370583361
20
17
10
5.0489768276516092
20
17
42
0.99999999999999989
10
4.8722001323549726
20
16.823223304703362
10
4.8722001323549717
20
13.000000000000004
10
0.50305950735497218
20
13.000000000000004
10
0.5030595073549724
20
16.823223304703362
42
0.99999999999999989
10
0.32628281205833592
20
17
10
0.17202370265160896
20
17
42
1.0000000074505806
10
-0.0047529926450271005
20
16.823223304703362
10
-0.0047529926450272358
20
13.000000000000004
10
-4.3738936176450256
20
13.000000000000004
10
-4.3738936176450256
20
16.823223304703362
42
0.99999999999999989
10
-4.5506703129416621
20
17
0
ENDSEC
0
SECTION
2
OBJECTS
0
DICTIONARY
5
C
100
AcDbDictionary
3
ACAD_GROUP
350
D
3
ACAD_MLINESTYLE
350
17
0
DICTIONARY
5
D
100
AcDbDictionary
0
DICTIONARY
5
1A
330
C
100
AcDbDictionary
0
DICTIONARY
5
17
100
AcDbDictionary
0
ENDSEC
0
EOF
